<?xml version="1.0" encoding="UTF-8"?>
<!DOCTYPE svg PUBLIC "-//W3C//DTD SVG 1.1//EN" "http://www.w3.org/Graphics/SVG/1.1/DTD/svg11.dtd">
<svg xmlns="http://www.w3.org/2000/svg" version="1.1" width="274px" height="105px" style="shape-rendering:geometricPrecision; text-rendering:geometricPrecision; image-rendering:optimizeQuality; fill-rule:evenodd; clip-rule:evenodd" xmlns:xlink="http://www.w3.org/1999/xlink">
<g><path style="opacity:0.726" fill="#eeeeee" d="M 42.5,7.5 C 53.0719,7.91302 56.9052,13.2464 54,23.5C 51.2615,25.7011 48.2615,27.3678 45,28.5C 41.7385,27.3678 38.7385,25.7011 36,23.5C 35.3333,19.8333 35.3333,16.1667 36,12.5C 38.3256,10.9343 40.4922,9.26762 42.5,7.5 Z M 43.5,11.5 C 49.849,12.0274 52.0157,15.3608 50,21.5C 48.3333,22.8333 46.6667,24.1667 45,25.5C 43.172,23.9186 41.172,22.5853 39,21.5C 38.3333,19.1667 38.3333,16.8333 39,14.5C 40.6516,13.6006 42.1516,12.6006 43.5,11.5 Z"/></g>
<g><path style="opacity:1" fill="#d4d6d6" d="M 127.5,53.5 C 127.366,51.7085 127.699,50.0418 128.5,48.5C 132.5,48.1667 132.5,47.8333 128.5,47.5C 127.094,47.9731 126.427,48.9731 126.5,50.5C 124.274,53.9446 122.274,57.6112 120.5,61.5C 114.976,63.9142 112.809,62.2476 114,56.5C 119.519,45.6214 124.852,34.6214 130,23.5C 132.667,20.8333 135.333,20.8333 138,23.5C 142.759,34.1845 147.926,44.6845 153.5,55C 155.96,61.8731 153.794,64.0398 147,61.5C 145.92,59.0038 144.586,56.6705 143,54.5C 139.662,57.3181 135.829,58.1515 131.5,57C 129.676,56.34 128.343,55.1733 127.5,53.5 Z M 137.5,43.5 C 135.355,42.3463 133.355,41.013 131.5,39.5C 132.531,38.2997 133.365,36.9663 134,35.5C 135.467,38.0789 136.634,40.7456 137.5,43.5 Z"/></g>
<g><path style="opacity:0.999" fill="#d8dada" d="M 160.5,21.5 C 167.589,21.1156 174.589,21.6156 181.5,23C 183.049,24.214 184.215,25.714 185,27.5C 186.223,33.3792 185.389,38.8792 182.5,44C 177.292,45.3967 171.959,45.8967 166.5,45.5C 166.666,50.5111 166.499,55.5111 166,60.5C 163.667,63.1667 161.333,63.1667 159,60.5C 158.333,48.1667 158.333,35.8333 159,23.5C 159.717,22.9558 160.217,22.2891 160.5,21.5 Z M 175.5,29.5 C 177.28,30.9899 177.946,32.9899 177.5,35.5C 177.586,36.4959 177.252,37.3292 176.5,38C 173.183,38.4983 169.85,38.665 166.5,38.5C 166.5,35.5 166.5,32.5 166.5,29.5C 169.5,29.5 172.5,29.5 175.5,29.5 Z"/></g>
<g><path style="opacity:1" fill="#cbcdcd" d="M 192.5,21.5 C 195.148,21.7385 196.982,23.0718 198,25.5C 198.667,36.8333 198.667,48.1667 198,59.5C 196.28,62.6165 193.78,63.2832 190.5,61.5C 189.334,48.8465 189.167,36.1798 190,23.5C 190.995,22.9341 191.828,22.2674 192.5,21.5 Z"/></g>
<g><path style="opacity:1" fill="#d3d5d5" d="M 214.5,21.5 C 218.586,21.8839 222.586,22.7173 226.5,24C 230.644,27.2154 230.477,30.0487 226,32.5C 222.864,31.3991 219.697,30.3991 216.5,29.5C 209.814,30.9629 209.147,33.4629 214.5,37C 221.028,37.5997 226.195,40.433 230,45.5C 232.439,53.3583 229.939,58.8583 222.5,62C 215.426,63.4653 208.926,62.2986 203,58.5C 202.242,56.2305 202.409,54.0639 203.5,52C 207.63,52.5879 211.797,53.4212 216,54.5C 221.281,54.2596 222.448,52.0929 219.5,48C 214.669,46.3895 210.003,44.3895 205.5,42C 201.142,35.5246 201.808,29.5246 207.5,24C 209.927,23.0977 212.26,22.2644 214.5,21.5 Z"/></g>
<g><path style="opacity:0.306" fill="#919292" d="M 175.5,29.5 C 176.189,28.2264 177.023,28.2264 178,29.5C 178.789,31.7116 178.622,33.7116 177.5,35.5C 177.946,32.9899 177.28,30.9899 175.5,29.5 Z"/></g>
<g><path style="opacity:0.84" fill="#f4f4f4" d="M 36.5,32.5 C 39.4059,32.9157 42.2393,33.5824 45,34.5C 47.4804,33.4862 49.9804,32.9862 52.5,33C 52.7461,36.3494 52.7461,39.8494 52.5,43.5C 49.9158,43.4312 47.9158,42.2645 46.5,40C 44.2992,39.1751 42.4659,39.6751 41,41.5C 40.9295,44.7749 40.7629,47.9416 40.5,51C 35.7095,50.0443 30.8762,48.8777 26,47.5C 17.3246,48.1467 14.3246,52.4801 17,60.5C 22.1859,63.1284 27.3526,62.9618 32.5,60C 39.4495,55.3847 46.1162,50.3847 52.5,45C 58.2757,42.6059 64.2757,41.9393 70.5,43C 80.4952,47.3196 82.6618,54.153 77,63.5C 71.9168,66.9812 66.4168,67.9812 60.5,66.5C 61.256,78.3042 56.4227,87.3042 46,93.5C 41.306,90.651 36.9727,87.3177 33,83.5C 27.5093,73.5048 30.3426,67.5048 41.5,65.5C 43.7094,66.1062 45.876,66.7728 48,67.5C 48.4123,70.5967 47.2457,71.5967 44.5,70.5C 40.9003,70.7256 38.2336,72.3923 36.5,75.5C 36.8076,76.3081 37.3076,76.9747 38,77.5C 40.3734,74.6978 43.2068,74.0311 46.5,75.5C 47.6139,76.723 47.7805,78.0563 47,79.5C 45.2197,80.5937 43.3864,81.5937 41.5,82.5C 42.4363,83.9744 43.7697,84.9744 45.5,85.5C 52.2502,81.2761 55.0835,75.2761 54,67.5C 48.3509,56.8185 50.5176,54.9851 60.5,62C 67.4431,64.2551 72.1098,62.0885 74.5,55.5C 72.0216,48.2604 67.0216,45.7604 59.5,48C 50.9901,53.7549 42.6568,59.7549 34.5,66C 26.1082,70.0402 18.6082,68.8735 12,62.5C 7.20593,49.7813 11.7059,43.1146 25.5,42.5C 28.8892,42.9533 32.2225,43.62 35.5,44.5C 37.5819,40.6112 37.9152,36.6112 36.5,32.5 Z"/></g>
<g><path style="opacity:0.051" fill="#7c7d7d" d="M 128.5,47.5 C 128.5,47.8333 128.5,48.1667 128.5,48.5C 127.699,50.0418 127.366,51.7085 127.5,53.5C 126.596,52.791 126.263,51.791 126.5,50.5C 126.427,48.9731 127.094,47.9731 128.5,47.5 Z"/></g>
<g><path style="opacity:0.031" fill="#979898" d="M 124.5,67.5 C 131.354,67.176 138.021,67.5093 144.5,68.5C 141.833,68.5 139.167,68.5 136.5,68.5C 136.5,72.1667 136.5,75.8333 136.5,79.5C 135.523,76.7131 135.19,73.7131 135.5,70.5C 134.486,69.2353 132.986,68.5687 131,68.5C 129.014,68.5687 127.514,69.2353 126.5,70.5C 126.167,70.5 125.833,70.5 125.5,70.5C 125.443,69.391 125.11,68.391 124.5,67.5 Z"/></g>
<g><path style="opacity:0.157" fill="#8e9191" d="M 153.5,68.5 C 151.167,68.5 148.833,68.5 146.5,68.5C 146.5,72.1667 146.5,75.8333 146.5,79.5C 145.517,75.7016 145.183,71.7016 145.5,67.5C 148.385,67.1936 151.052,67.5269 153.5,68.5 Z"/></g>
<g><path style="opacity:0.914" fill="#cccdcd" d="M 176.5,67.5 C 179.5,67.5 182.5,67.5 185.5,67.5C 185.5,68.5 185.5,69.5 185.5,70.5C 184.5,70.5 183.5,70.5 182.5,70.5C 182.5,73.5 182.5,76.5 182.5,79.5C 181.5,79.5 180.5,79.5 179.5,79.5C 179.5,76.5 179.5,73.5 179.5,70.5C 178.5,70.5 177.5,70.5 176.5,70.5C 176.5,69.5 176.5,68.5 176.5,67.5 Z"/></g>
<g><path style="opacity:0.004" fill="#2f2f2f" d="M 202.5,68.5 C 202.5,72.1667 202.5,75.8333 202.5,79.5C 201.833,78.5 201.167,77.5 200.5,76.5C 201.301,74.9582 201.634,73.2915 201.5,71.5C 201.263,70.209 201.596,69.209 202.5,68.5 Z"/></g>
<g><path style="opacity:0.804" fill="#cfd0d0" d="M 111.5,67.5 C 112.5,67.5 113.5,67.5 114.5,67.5C 114.5,71.5 114.5,75.5 114.5,79.5C 113.5,79.5 112.5,79.5 111.5,79.5C 111.5,75.5 111.5,71.5 111.5,67.5 Z"/></g>
<g><path style="opacity:0.979" fill="#d7d9d9" d="M 144.5,68.5 C 143.448,70.256 141.781,70.9227 139.5,70.5C 138.957,70.56 138.624,70.8933 138.5,71.5C 140.045,72.4519 141.712,72.7852 143.5,72.5C 144.833,73.1667 144.833,73.8333 143.5,74.5C 141.712,74.2148 140.045,74.5481 138.5,75.5C 138.624,76.1067 138.957,76.44 139.5,76.5C 141.167,76.5 142.833,76.5 144.5,76.5C 144.5,77.5 144.5,78.5 144.5,79.5C 141.833,79.5 139.167,79.5 136.5,79.5C 136.5,75.8333 136.5,72.1667 136.5,68.5C 139.167,68.5 141.833,68.5 144.5,68.5 Z"/></g>
<g><path style="opacity:0.086" fill="#8b8b8b" d="M 165.5,67.5 C 166.167,70.5 166.833,73.5 167.5,76.5C 166.89,77.391 166.557,78.391 166.5,79.5C 166.167,79.5 165.833,79.5 165.5,79.5C 165.5,75.5 165.5,71.5 165.5,67.5 Z"/></g>
<g><path style="opacity:0.997" fill="#cbcdcd" d="M 166.5,79.5 C 166.557,78.391 166.89,77.391 167.5,76.5C 168.226,73.8206 169.059,71.154 170,68.5C 171.333,67.1667 172.667,67.1667 174,68.5C 175.371,72.0732 176.871,75.5732 178.5,79C 176.336,79.4333 174.336,78.9333 172.5,77.5C 170.675,78.6511 168.675,79.3178 166.5,79.5 Z"/></g>
<g><path style="opacity:0.804" fill="#d8dada" d="M 186.5,68.5 C 188.414,71.6843 189.08,75.351 188.5,79.5C 186.586,76.3157 185.92,72.649 186.5,68.5 Z"/></g>
<g><path style="opacity:0.282" fill="#9e9e9e" d="M 186.5,68.5 C 187.209,67.596 188.209,67.2627 189.5,67.5C 189.232,69.099 189.566,70.4324 190.5,71.5C 190.5,73.1667 190.5,74.8333 190.5,76.5C 189.833,77.5 189.167,78.5 188.5,79.5C 189.08,75.351 188.414,71.6843 186.5,68.5 Z"/></g>
<g><path style="opacity:1" fill="#c3c5c5" d="M 201.5,71.5 C 201.634,73.2915 201.301,74.9582 200.5,76.5C 200.586,77.4959 200.252,78.3292 199.5,79C 196.833,79.6667 194.167,79.6667 191.5,79C 190.748,78.3292 190.414,77.4959 190.5,76.5C 190.5,74.8333 190.5,73.1667 190.5,71.5C 191.957,67.9509 194.623,66.7842 198.5,68C 199.636,69.1451 200.636,70.3117 201.5,71.5 Z M 194.5,70.5 C 195.496,70.4142 196.329,70.7476 197,71.5C 197.494,73.1341 197.66,74.8008 197.5,76.5C 193.556,76.1156 192.556,74.1156 194.5,70.5 Z"/></g>
<g><path style="opacity:0.224" fill="#bfc0c0" d="M 135.5,70.5 C 134.5,70.5 133.5,70.5 132.5,70.5C 132.5,73.5 132.5,76.5 132.5,79.5C 131.167,79.5 129.833,79.5 128.5,79.5C 129.055,75.9878 128.388,72.9878 126.5,70.5C 127.514,69.2353 129.014,68.5687 131,68.5C 132.986,68.5687 134.486,69.2353 135.5,70.5 Z"/></g>
<g><path style="opacity:0.004" fill="#313131" d="M 139.5,70.5 C 140.833,71.1667 142.167,71.8333 143.5,72.5C 141.712,72.7852 140.045,72.4519 138.5,71.5C 138.624,70.8933 138.957,70.56 139.5,70.5 Z"/></g>
<g><path style="opacity:0.961" fill="#cacccc" d="M 165.5,67.5 C 165.5,71.5 165.5,75.5 165.5,79.5C 162.405,79.3737 160.572,77.707 160,74.5C 159.506,76.1341 159.34,77.8008 159.5,79.5C 157.143,79.6633 154.81,79.4966 152.5,79C 151.299,78.0975 150.465,76.9308 150,75.5C 149.51,76.7932 149.343,78.1266 149.5,79.5C 148.5,79.5 147.5,79.5 146.5,79.5C 146.5,75.8333 146.5,72.1667 146.5,68.5C 148.833,68.5 151.167,68.5 153.5,68.5C 155.796,70.2184 156.129,72.385 154.5,75C 154.862,76.2247 155.362,77.3914 156,78.5C 156.499,74.8484 156.665,71.1817 156.5,67.5C 159.713,68.164 161.879,70.164 163,73.5C 163.002,70.9488 163.836,68.9488 165.5,67.5 Z M 149.5,70.5 C 151.983,70.73 152.483,71.3966 151,72.5C 149.97,72.1639 149.47,71.4972 149.5,70.5 Z"/></g>
<g><path style="opacity:0.871" fill="#c1c3c3" d="M 124.5,67.5 C 125.11,68.391 125.443,69.391 125.5,70.5C 125.5,73.5 125.5,76.5 125.5,79.5C 123.011,79.7593 121.344,78.7593 120.5,76.5C 120.217,75.7109 119.717,75.0442 119,74.5C 118.506,76.1341 118.34,77.8008 118.5,79.5C 117.5,79.5 116.5,79.5 115.5,79.5C 115.5,75.5 115.5,71.5 115.5,67.5C 118.642,67.7993 120.809,69.4659 122,72.5C 122.05,70.256 122.883,68.5893 124.5,67.5 Z"/></g>
<g><path style="opacity:0.004" fill="#2d2e2d" d="M 120.5,76.5 C 119.833,77.5 119.167,78.5 118.5,79.5C 118.34,77.8008 118.506,76.1341 119,74.5C 119.717,75.0442 120.217,75.7109 120.5,76.5 Z"/></g>
<g><path style="opacity:0.004" fill="#303030" d="M 143.5,74.5 C 142.167,75.1667 140.833,75.8333 139.5,76.5C 138.957,76.44 138.624,76.1067 138.5,75.5C 140.045,74.5481 141.712,74.2148 143.5,74.5 Z"/></g>
<g><path style="opacity:1" fill="#cacbcb" d="M 202.5,79.5 C 202.5,75.8333 202.5,72.1667 202.5,68.5C 203.386,67.2241 204.386,67.2241 205.5,68.5C 207.899,73.9746 208.899,73.6412 208.5,67.5C 209.5,67.5 210.5,67.5 211.5,67.5C 211.075,80.4239 212.408,80.4239 215.5,67.5C 216.978,67.238 218.311,67.5713 219.5,68.5C 220.667,71.5 221.833,74.5 223,77.5C 223.498,74.1832 223.665,70.8499 223.5,67.5C 224.5,67.5 225.5,67.5 226.5,67.5C 226.5,70.5 226.5,73.5 226.5,76.5C 228.5,76.5 230.5,76.5 232.5,76.5C 232.5,77.5 232.5,78.5 232.5,79.5C 227.331,79.9351 222.331,79.2684 217.5,77.5C 214.303,79.4694 210.97,79.8028 207.5,78.5C 205.993,74.6452 205.326,74.9786 205.5,79.5C 204.5,79.5 203.5,79.5 202.5,79.5 Z"/></g>
</svg>
